<svg width="106" height="37" viewBox="0 0 106 37" fill="none" xmlns="http://www.w3.org/2000/svg">
<path d="M16.8956 0.527954H17.4236L34.4156 35.856H28.2236L25.1996 28.944H9.02358L5.99958 35.856H-0.000421911L16.8956 0.527954ZM17.1356 10.752L15.0236 15.552L11.1836 24.096H23.0876L19.2956 15.6L17.2316 10.752H17.1356ZM42.891 36.336C41.803 36.336 40.523 36.192 39.051 35.904C37.611 35.616 36.379 35.024 35.355 34.128L37.515 29.184C38.059 29.824 38.683 30.32 39.387 30.672C40.123 31.024 41.035 31.2 42.123 31.2C43.083 31.2 43.867 31.04 44.475 30.72C45.115 30.368 45.579 29.728 45.867 28.8C46.187 27.872 46.347 26.528 46.347 24.768V0.575956H51.675V26.112C51.675 28.672 51.275 30.704 50.475 32.208C49.675 33.68 48.603 34.736 47.259 35.376C45.947 36.016 44.491 36.336 42.891 36.336ZM58.995 35.856V0.575956H64.371V35.856H58.995ZM88.2356 36.336C85.8356 36.336 83.5636 35.92 81.4196 35.088C79.3076 34.256 77.4356 33.056 75.8036 31.488C74.1716 29.888 72.8756 27.968 71.9156 25.728C70.9876 23.488 70.5236 20.96 70.5236 18.144C70.5236 15.296 70.9876 12.752 71.9156 10.512C72.8756 8.27196 74.1716 6.36796 75.8036 4.79996C77.4676 3.23196 79.3556 2.04796 81.4676 1.24796C83.6116 0.415956 85.8676 -4.48227e-05 88.2356 -4.48227e-05C90.6036 -4.48227e-05 92.8436 0.415956 94.9556 1.24796C97.0996 2.04796 98.9876 3.23196 100.62 4.79996C102.284 6.36796 103.58 8.27196 104.508 10.512C105.468 12.752 105.948 15.296 105.948 18.144C105.948 20.96 105.468 23.488 104.508 25.728C103.58 27.968 102.3 29.888 100.668 31.488C99.0356 33.056 97.1476 34.256 95.0036 35.088C92.8916 35.92 90.6356 36.336 88.2356 36.336ZM88.2356 31.488C90.4116 31.488 92.4116 30.976 94.2356 29.952C96.0596 28.928 97.5156 27.44 98.6036 25.488C99.6916 23.504 100.236 21.072 100.236 18.192C100.236 15.28 99.6916 12.848 98.6036 10.896C97.5156 8.91196 96.0596 7.42396 94.2356 6.43196C92.4436 5.40796 90.4436 4.89596 88.2356 4.89596C86.0276 4.89596 84.0116 5.40796 82.1876 6.43196C80.3956 7.42396 78.9556 8.91196 77.8676 10.896C76.7796 12.848 76.2356 15.28 76.2356 18.192C76.2356 21.072 76.7956 23.504 77.9156 25.488C79.0356 27.44 80.5076 28.928 82.3316 29.952C84.1556 30.976 86.1236 31.488 88.2356 31.488Z" fill="white"/>
</svg>
