<svg width="130" height="44" viewBox="0 0 130 44" fill="none" xmlns="http://www.w3.org/2000/svg">
<path d="M21.0537 0.637985L41.5857 43.326H34.1037L30.4497 34.974H10.9037L7.24973 43.326H-0.000265669L20.4157 0.637985H21.0537ZM18.1537 18.792L13.5137 29.116H27.8977L23.3157 18.85L20.8217 12.992H20.7057L18.1537 18.792ZM51.8268 43.906C50.2028 43.906 48.5595 43.7127 46.8968 43.326C45.2341 42.9007 43.8421 42.2047 42.7208 41.238L45.3308 35.264C46.0268 36.076 46.8001 36.6947 47.6508 37.12C48.5401 37.5067 49.6228 37.7 50.8988 37.7C52.0975 37.7 53.0641 37.4873 53.7988 37.062C54.5335 36.6367 55.0748 35.8633 55.4228 34.742C55.8095 33.6207 56.0028 32.016 56.0028 29.928V0.695988H62.4408V31.552C62.4408 35.8827 61.4548 39.034 59.4828 41.006C57.5495 42.9393 54.9975 43.906 51.8268 43.906ZM72.6452 0.695988H79.1412V43.326H72.6452V0.695988ZM108.544 43.906C104.677 43.906 101.101 43.0167 97.814 41.238C94.566 39.4207 91.9753 36.8493 90.042 33.524C88.1087 30.1987 87.142 26.332 87.142 21.924C87.142 17.4773 88.1087 13.6107 90.042 10.324C91.9753 6.99865 94.566 4.44665 97.814 2.66799C101.101 0.88932 104.677 -1.34706e-05 108.544 -1.34706e-05C112.411 -1.34706e-05 115.968 0.88932 119.216 2.66799C122.503 4.44665 125.113 6.99865 127.046 10.324C128.979 13.6107 129.946 17.4773 129.946 21.924C129.946 26.332 128.979 30.1987 127.046 33.524C125.113 36.8493 122.503 39.4207 119.216 41.238C115.968 43.0167 112.411 43.906 108.544 43.906ZM108.544 38.048C111.212 38.048 113.648 37.4293 115.852 36.192C118.056 34.916 119.796 33.0793 121.072 30.682C122.387 28.246 123.044 25.346 123.044 21.982C123.044 18.5793 122.387 15.6793 121.072 13.282C119.796 10.846 118.056 9.00932 115.852 7.77199C113.687 6.53465 111.251 5.91599 108.544 5.91599C105.837 5.91599 103.382 6.53465 101.178 7.77199C98.974 9.00932 97.234 10.846 95.958 13.282C94.682 15.6793 94.044 18.5793 94.044 21.982C94.044 25.346 94.7013 28.246 96.016 30.682C97.3307 33.0793 99.09 34.916 101.294 36.192C103.537 37.4293 105.953 38.048 108.544 38.048Z" fill="white"/>
</svg>
