<svg width="35" height="35" viewBox="0 0 35 35" fill="none" xmlns="http://www.w3.org/2000/svg">
<mask id="mask0_55_228" style="mask-type:alpha" maskUnits="userSpaceOnUse" x="0" y="0" width="35" height="35">
<rect width="35" height="35" fill="#D9D9D9"/>
</mask>
<g mask="url(#mask0_55_228)">
<path d="M17.4996 29.6209L16.3414 28.5664C13.8361 26.2713 11.7669 24.2957 10.1337 22.6397C8.50054 20.9838 7.20207 19.514 6.23828 18.2305C5.27447 16.947 4.60138 15.7879 4.21903 14.7534C3.83668 13.7188 3.64551 12.6815 3.64551 11.6414C3.64551 9.6412 4.31999 7.96655 5.66895 6.61744C7.0179 5.26831 8.68517 4.59375 10.6707 4.59375C12.0281 4.59375 13.2868 4.9359 14.4469 5.6202C15.6071 6.3045 16.6246 7.29917 17.4996 8.6042C18.4831 7.24496 19.5383 6.23674 20.6653 5.57955C21.7923 4.92235 23.0134 4.59375 24.3285 4.59375C26.3141 4.59375 27.9814 5.26831 29.3303 6.61744C30.6793 7.96655 31.3538 9.6412 31.3538 11.6414C31.3538 12.6815 31.1626 13.7188 30.7802 14.7534C30.3979 15.7879 29.7253 16.946 28.7626 18.2275C27.7999 19.509 26.5014 20.9787 24.8672 22.6367C23.2329 24.2947 21.1632 26.2713 18.6579 28.5664L17.4996 29.6209ZM17.4996 27.4278C19.9234 25.2091 21.9179 23.3074 23.4832 21.7228C25.0485 20.1381 26.2921 18.7517 27.2141 17.5633C28.136 16.375 28.7807 15.3185 29.1481 14.3939C29.5155 13.4693 29.6991 12.5535 29.6991 11.6467C29.6991 10.0857 29.1934 8.79578 28.1819 7.77682C27.1704 6.75786 25.8887 6.24838 24.3367 6.24838C23.0938 6.24838 21.9511 6.6195 20.9086 7.36174C19.8662 8.10401 18.9561 9.20056 18.1783 10.6514H16.7985C16.0264 9.21551 15.1191 8.1227 14.0769 7.37297C13.0346 6.62324 11.8965 6.24838 10.6625 6.24838C9.11991 6.24838 7.84053 6.75786 6.82438 7.77682C5.80822 8.79578 5.30013 10.0894 5.30013 11.6576C5.30013 12.563 5.48458 13.4805 5.85346 14.41C6.22235 15.3396 6.86457 16.4016 7.78014 17.5959C8.6957 18.7902 9.94389 20.1754 11.5247 21.7516C13.1055 23.3277 15.0971 25.2198 17.4996 27.4278Z" fill="#1C1B1F"/>
</g>
</svg>
