<svg width="28" height="26" viewBox="0 0 28 26" fill="none" xmlns="http://www.w3.org/2000/svg">
<path d="M13.8541 25.0272L12.6959 23.9727C10.1906 21.6775 8.12136 19.702 6.4882 18.046C4.85504 16.39 3.55656 14.9203 2.59277 13.6368C1.62896 12.3532 0.955877 11.1942 0.573526 10.1596C0.191175 9.12503 0 8.08771 0 7.04765C0 5.04745 0.674479 3.3728 2.02344 2.02369C3.3724 0.674565 5.03966 0 7.02523 0C8.3826 0 9.64133 0.342151 10.8014 1.02645C11.9616 1.71075 12.9791 2.70542 13.8541 4.01045C14.8376 2.65121 15.8928 1.64299 17.0198 0.985797C18.1468 0.328599 19.3679 0 20.683 0C22.6686 0 24.3359 0.674565 25.6848 2.02369C27.0338 3.3728 27.7083 5.04745 27.7083 7.04765C27.7083 8.08771 27.5171 9.12503 27.1347 10.1596C26.7524 11.1942 26.0798 12.3522 25.1171 13.6337C24.1544 14.9152 22.8559 16.385 21.2217 18.043C19.5874 19.701 17.5177 21.6775 15.0124 23.9727L13.8541 25.0272Z" fill="#1C1B1F"/>
</svg>
