<svg width="35" height="35" viewBox="0 0 35 35" fill="none" xmlns="http://www.w3.org/2000/svg">
<mask id="mask0_4_2" style="mask-type:alpha" maskUnits="userSpaceOnUse" x="0" y="0" width="35" height="35">
<rect width="35" height="35" fill="#D9D9D9"/>
</mask>
<g mask="url(#mask0_4_2)">
<path d="M17.8541 27.0272L16.6959 25.9727C14.1906 23.6775 12.1214 21.702 10.4882 20.046C8.85504 18.39 7.55656 16.9203 6.59277 15.6368C5.62896 14.3532 4.95588 13.1942 4.57353 12.1596C4.19118 11.125 4 10.0877 4 9.04765C4 7.04745 4.67448 5.3728 6.02344 4.02369C7.3724 2.67456 9.03966 2 11.0252 2C12.3826 2 13.6413 2.34215 14.8014 3.02645C15.9616 3.71075 16.9791 4.70542 17.8541 6.01045C18.8376 4.65121 19.8928 3.64299 21.0198 2.9858C22.1468 2.3286 23.3679 2 24.683 2C26.6686 2 28.3359 2.67456 29.6848 4.02369C31.0338 5.3728 31.7083 7.04745 31.7083 9.04765C31.7083 10.0877 31.5171 11.125 31.1347 12.1596C30.7524 13.1942 30.0798 14.3522 29.1171 15.6337C28.1544 16.9152 26.8559 18.385 25.2217 20.043C23.5874 21.701 21.5177 23.6775 19.0124 25.9727L17.8541 27.0272ZM17.8541 24.8341C20.2779 22.6153 22.2724 20.7137 23.8377 19.129C25.403 17.5444 26.6466 16.1579 27.5686 14.9696C28.4905 13.7812 29.1352 12.7248 29.5026 11.8001C29.87 10.8755 30.0536 9.95977 30.0536 9.0529C30.0536 7.49198 29.5479 6.20203 28.5364 5.18307C27.5249 4.16411 26.2432 3.65463 24.6912 3.65463C23.4483 3.65463 22.3056 4.02575 21.2631 4.76799C20.2207 5.51026 19.3106 6.60681 18.5328 8.05766H17.153C16.3809 6.62176 15.4736 5.52895 14.4314 4.77922C13.3891 4.02949 12.251 3.65463 11.017 3.65463C9.4744 3.65463 8.19502 4.16411 7.17888 5.18307C6.16271 6.20203 5.65463 7.49561 5.65463 9.0638C5.65463 9.96923 5.83907 10.8867 6.20795 11.8163C6.57684 12.7459 7.21906 13.8078 8.13463 15.0021C9.0502 16.1965 10.2984 17.5817 11.8792 19.1578C13.46 20.7339 15.4516 22.626 17.8541 24.8341Z" fill="#1C1B1F"/>
<path d="M17.8541 24.8341C20.2779 22.6153 22.2724 20.7137 23.8377 19.129C25.403 17.5444 26.6466 16.1579 27.5686 14.9696C28.4905 13.7812 29.1352 12.7248 29.5026 11.8001C29.87 10.8755 30.0536 9.95977 30.0536 9.0529C30.0536 7.49198 29.5479 6.20203 28.5364 5.18307C27.5249 4.16411 26.2432 3.65463 24.6912 3.65463C23.4483 3.65463 22.3056 4.02575 21.2631 4.76799C20.2207 5.51026 19.3106 6.60681 18.5328 8.05766H17.153C16.3809 6.62176 15.4736 5.52895 14.4314 4.77922C13.3891 4.02949 12.251 3.65463 11.017 3.65463C9.4744 3.65463 8.19502 4.16411 7.17888 5.18307C6.16271 6.20203 5.65463 7.49561 5.65463 9.0638C5.65463 9.96923 5.83907 10.8867 6.20795 11.8163C6.57684 12.7459 7.21906 13.8078 8.13463 15.0021C9.0502 16.1965 10.2984 17.5817 11.8792 19.1578C13.46 20.7339 15.4516 22.626 17.8541 24.8341Z" fill="#1C1B1F"/>
</g>
</svg>
